<svg width="677" height="820" viewBox="0 0 677 820" fill="none" xmlns="http://www.w3.org/2000/svg">
<path d="M3.90091 581.807C-20.9925 372.873 79.8172 264.917 120.59 228.327C122.031 227.034 125.488 227.011 128.081 228.068C131.25 229.361 133.843 232.895 134.42 235.309C135.284 238.929 136.148 249.013 142.199 265.045C144.312 271.682 151.361 286.766 162.655 294.007C169.282 298.661 174.18 294.007 174.468 294.007C178.214 291.938 187.376 282.991 194.061 263.753C197.23 255.478 198.094 241.256 200.399 218.501C202.704 195.746 217.975 136.789 253.99 85.5903C281.361 51.9748 296.919 41.373 332.358 17.5836C358.289 3.87881 366.356 6.33549e-06 370.102 0C376.152 -1.0234e-05 383.067 2.32727 380.762 9.56754C379.61 13.1877 379.034 14.9977 370.678 36.4598C364.577 52.1305 364.557 68.5238 369.814 93.089C372.746 106.794 378.457 120.24 385.084 130.842C390.349 139.266 414.415 168.853 461.436 223.673C461.436 223.673 480.452 251.858 494.858 248.496C506.321 245.822 507.823 221.604 515.026 181.783C515.4 179.714 520.212 169.37 536.347 182.3C683.865 336.414 676.949 496.734 676.949 518.714C676.949 594.995 624.8 775.209 396.609 812.978C145.08 854.61 17.7448 698 3.90091 581.807Z" fill="#FE6B22"/>
</svg>
