<svg width="180" height="149" viewBox="0 0 180 149" fill="none" xmlns="http://www.w3.org/2000/svg">
<path d="M111.988 19.7153C113.391 15.4906 111.787 4.02379 100.157 0.402682C94.9428 -1.00549 92.737 1.4086 88.5259 5.63318C74.6897 25.3481 70.4786 40.4361 72.2833 65.7839C52.2307 56.9323 36.7902 54.317 11.1229 57.1335C9.25135 57.4688 5.5082 59.0647 5.5082 62.7663C6.71135 67.9968 12.5266 75.239 41.4023 84.493C16.1361 96.9657 11.524 103.604 0.4951 125.13C-1.30969 132.171 1.69828 134.952 11.524 133.982C20.3472 133.11 43.528 128.308 65.666 116.077C69.8771 130.763 72.885 136.798 80.505 144.241C82.9431 146.623 86.1197 149.673 92.336 148.868C103.766 144.443 111.988 128.349 114.995 118.089C136.051 127.544 150.729 133.257 174.151 133.579C176.757 133.579 179.485 133.298 179.966 129.757C180.3 127.142 178.322 118.491 167.734 104.811C164.308 100.386 153.697 90.7293 137.454 85.9012V84.2918C138.992 84.2918 143.991 83.2859 151.692 79.2625C158.109 76.4461 161.718 75.0379 170.942 67.3933C172.814 66.1192 176.356 62.4847 175.554 58.1393C172.546 55.3229 166.731 54.5182 151.692 54.5182C141.465 54.5182 133.524 54.2768 101.761 66.1862C100.157 58.5417 100.157 50.4947 101.36 44.0572C105.571 29.1704 108.178 27.3599 111.988 19.7153Z" fill="#1D9527"/>
</svg>
